# xmcd
#
# Track frame offsets:
#	150
#	12755
#	26317
#	39191
#	50993
#	63028
#	78615
#	93261
#	106818
#	130061
#
# Disc length: 1875
#
# Revision: 1
# Processed by: cddbd v1.5.1PL0 Copyright (c) Steve Scherf et al.
# Submitted via: VisiTrax 2.9.9.209 - For more info visit www.synapsa.com
# Normalized: r0:DSETVAR1
#
DISCID=6e07510a
DTITLE=Various Artist - The Summer of Motown
DYEAR=2004
DGENRE=Motown
TTITLE0=Isley Brothers - This Old Heart of Mine
TTITLE1=Four Tops - Reach Out, I'll Be There
TTITLE2=Smokey Robinson and The Miracles - Tracks of My Tears
TTITLE3=Diana Ross and The Supremes - Baby Love
TTITLE4=Martha Reeves and The Vandellas - Dancing In The Street
TTITLE5=Edwin Starr - War
TTITLE6=Marvin Gaye - I Heard It Through The Grapevine
TTITLE7=Michael Jackson and The Jackson Five - I Want You Back
TTITLE8=Temptations - Papa was A Rollin' Stone
TTITLE9=Frank Wilson - Do I Love You (Indeed I Do)
EXTD=Free from HMV , 45th Anniversary Promotion http://www.songofthesalesman.co.uk/
EXTT0=
EXTT1=
EXTT2=
EXTT3=
EXTT4=
EXTT5=
EXTT6=
EXTT7=
EXTT8=
EXTT9=
PLAYORDER=
